<svg xmlns="http://www.w3.org/2000/svg" xmlns:xlink="http://www.w3.org/1999/xlink" width="11.093" height="11.07" viewBox="0 0 11.093 11.07"><defs><style>.a{fill:#727c8d;}.b{clip-path:url(#a);}.c{clip-path:url(#b);}</style><clipPath id="a"><path class="a" d="M355.276-630.474a.293.293,0,0,1,0,.469l-1.36,1.36a.293.293,0,0,1-.469,0l-3.471-3.471a.117.117,0,0,0-.188,0l-3.448,3.448a.293.293,0,0,1-.469,0l-1.36-1.36a.293.293,0,0,1,0-.469l3.448-3.448a.117.117,0,0,0,0-.187l-3.494-3.494a.293.293,0,0,1,0-.469l1.36-1.36a.293.293,0,0,1,.469,0l3.494,3.494a.117.117,0,0,0,.188,0l3.518-3.518a.293.293,0,0,1,.469,0l1.36,1.36a.293.293,0,0,1,0,.469l-3.518,3.518a.117.117,0,0,0,0,.188Z"/></clipPath><clipPath id="b"><path class="a" d="M0-627.954H312.439V-714H0Z" transform="translate(0 714)"/></clipPath></defs><g class="b" transform="translate(-344.346 639.597)"><g class="c" transform="translate(56.68 -701.753)"><path class="a" d="M347.974-651.385l15.359,15.359-15.359,15.359-15.359-15.359Z" transform="translate(-54.749 703.693)"/></g></g></svg>